<?xml version="1.0" standalone="no"?>
<!DOCTYPE svg PUBLIC "-//W3C//DTD SVG 20010904//EN"
 "http://www.w3.org/TR/2001/REC-SVG-20010904/DTD/svg10.dtd">
<svg version="1.0" xmlns="http://www.w3.org/2000/svg"
 width="227.000000pt" height="203.000000pt" viewBox="0 0 227.000000 203.000000"
 preserveAspectRatio="xMidYMid meet">

<g transform="translate(0.000000,203.000000) scale(0.100000,-0.100000)"
fill="#000000" stroke="none">
<path d="M1015 1991 c-450 -73 -788 -422 -837 -865 -54 -479 255 -926 727
-1053 88 -23 118 -26 255 -26 125 0 170 4 232 21 227 62 418 187 550 362 64
84 142 243 170 345 32 116 32 374 0 490 -96 349 -366 614 -720 706 -86 22
-294 33 -377 20z m265 -61 c372 -46 694 -332 780 -692 11 -46 20 -86 20 -90 0
-5 -412 -8 -915 -8 -890 0 -915 1 -915 19 0 10 11 58 25 105 72 247 231 445
457 565 167 89 357 124 548 101z m-745 -1018 c10 -88 3 -134 -11 -77 -7 30
-34 34 -34 5 0 -11 -5 -20 -11 -20 -8 0 -9 18 -5 58 14 120 17 133 34 130 13
-3 19 -23 27 -96z m61 61 c11 -65 23 -73 24 -15 0 28 5 52 10 52 6 0 10 -38
10 -95 0 -75 -3 -95 -14 -95 -9 0 -17 15 -21 38 -11 67 -25 72 -25 9 0 -36 -4
-56 -10 -52 -6 3 -10 48 -10 101 0 76 3 94 15 94 8 0 17 -14 21 -37z m131 22
c8 -23 -7 -33 -18 -12 -20 35 -29 15 -29 -68 0 -69 3 -85 15 -85 8 0 15 7 15
15 0 8 5 15 11 15 6 0 9 -8 7 -17 -2 -13 -13 -18 -33 -18 l-30 0 -3 79 c-2 44
-1 85 2 93 7 18 55 17 63 -2z m43 -25 c0 -29 4 -40 15 -40 11 0 15 11 15 40 0
22 5 40 10 40 6 0 10 -38 10 -95 0 -57 -4 -95 -10 -95 -5 0 -10 20 -10 45 0
33 -4 45 -15 45 -11 0 -15 -12 -15 -45 0 -25 -4 -45 -10 -45 -6 0 -10 38 -10
95 0 57 4 95 10 95 6 0 10 -18 10 -40z m140 -56 l0 -95 -32 3 -33 3 -3 70 c-4
98 2 115 38 115 l30 0 0 -96z m97 -1 c2 -57 -1 -93 -7 -93 -6 0 -10 20 -10 45
0 33 -4 45 -15 45 -11 0 -15 -12 -15 -45 0 -25 -4 -45 -10 -45 -6 0 -10 39
-10 96 l0 95 33 -3 32 -3 2 -92z m77 80 c3 -10 8 -56 12 -102 5 -62 4 -82 -5
-77 -6 4 -11 16 -11 27 0 10 -7 19 -15 19 -8 0 -15 -9 -15 -19 0 -11 -5 -23
-11 -27 -9 -5 -10 15 -5 77 8 101 13 119 31 119 8 0 16 -8 19 -17z m106 -3 c0
-11 -4 -20 -10 -20 -5 0 -10 7 -10 16 0 9 -6 14 -12 12 -9 -3 -13 -29 -13 -83
0 -54 4 -80 13 -82 8 -3 12 6 12 26 0 17 -4 31 -10 31 -5 0 -10 5 -10 10 0 6
9 10 20 10 17 0 20 -7 20 -46 0 -45 0 -45 -32 -42 l-33 3 -3 79 c-2 44 -1 85
2 93 3 7 19 13 36 13 23 0 30 -4 30 -20z m65 11 c-15 -6 -20 -17 -19 -42 0
-19 6 -35 12 -35 25 -3 26 -6 7 -13 -27 -11 -27 -71 1 -82 16 -6 14 -8 -8 -8
l-28 -1 0 95 0 95 28 -1 c24 0 24 -1 7 -8z m162 -6 c8 -23 -7 -33 -18 -12 -18
30 -29 18 -29 -31 0 -44 2 -49 23 -48 19 1 22 -4 22 -39 0 -38 -2 -40 -32 -43
l-33 -3 0 95 0 96 30 0 c18 0 33 -6 37 -15z m91 -82 c2 -60 -1 -93 -8 -93 -5
0 -10 20 -10 45 0 33 -4 45 -15 45 -11 0 -15 -12 -15 -45 0 -25 -4 -45 -10
-45 -6 0 -10 39 -10 96 l0 95 33 -3 32 -3 3 -92z m64 86 c-19 -7 -23 -15 -20
-41 2 -18 8 -33 15 -33 6 0 15 -3 19 -7 4 -5 -2 -8 -14 -8 -18 0 -22 -6 -22
-35 0 -28 5 -38 23 -45 20 -8 19 -9 -10 -9 l-33 -1 0 95 0 95 33 -1 c30 0 30
-1 9 -10z m81 4 c-18 -4 -23 -11 -23 -38 0 -25 5 -34 23 -40 l22 -8 -22 -4
c-19 -4 -23 -11 -23 -43 0 -32 4 -39 23 -43 16 -3 13 -5 -10 -6 l-33 -1 0 95
0 95 33 -1 c23 -1 26 -3 10 -6z m71 -40 l15 -48 0 48 c1 26 6 47 11 47 6 0 10
-38 10 -95 0 -102 -12 -123 -30 -52 -17 65 -18 66 -19 10 -1 -29 -5 -53 -11
-53 -6 0 -10 38 -10 95 0 55 4 95 10 95 5 0 16 -21 24 -47z m126 27 c0 -11 -4
-20 -10 -20 -5 0 -10 7 -10 16 0 9 -6 14 -12 12 -23 -8 -20 -38 6 -69 18 -21
26 -42 26 -70 0 -37 -2 -39 -30 -39 -18 0 -33 6 -37 15 -8 23 7 33 18 12 15
-27 29 -20 29 14 0 19 -10 43 -25 61 -24 28 -33 67 -18 81 3 4 19 7 35 7 21 0
28 -5 28 -20z m-1487 -60 c-33 -13 -28 -21 8 -13 30 6 31 5 20 -16 -12 -22
-54 -28 -81 -11 -12 7 -12 12 4 29 11 12 31 21 45 20 26 0 26 0 4 -9z m1643
-11 c16 -17 16 -22 4 -29 -21 -14 -64 -12 -78 2 -21 21 -13 31 20 24 35 -7 28
8 -7 17 -14 3 -10 5 11 6 20 1 38 -7 50 -20z m24 -224 c0 -16 -78 -158 -115
-210 -50 -70 -159 -177 -228 -224 -70 -48 -204 -108 -294 -133 -113 -31 -344
-31 -458 0 -99 27 -229 89 -309 146 -79 56 -193 175 -241 250 -32 50 -85 157
-85 171 0 3 389 5 865 5 476 0 865 -2 865 -5z"/>
<path d="M1020 1735 c0 -18 -17 -20 -23 -2 -2 6 -8 9 -12 5 -4 -4 1 -18 12
-32 20 -28 36 -35 27 -12 -3 8 -1 24 6 35 7 14 7 21 0 21 -5 0 -10 -7 -10 -15z"/>
<path d="M1321 1716 c-23 -28 17 -68 45 -45 14 12 10 29 -7 29 -6 0 -7 -4 -4
-10 3 -5 -1 -10 -9 -10 -10 0 -16 9 -16 21 0 17 5 20 25 17 13 -3 22 -1 19 3
-8 14 -40 11 -53 -5z"/>
<path d="M930 1696 c5 -13 6 -27 3 -30 -8 -8 11 -8 31 0 9 3 16 11 16 16 0 6
-6 5 -15 -2 -12 -10 -15 -7 -21 14 -3 14 -10 26 -15 26 -5 0 -4 -11 1 -24z"/>
<path d="M1414 1685 c-3 -14 -11 -25 -18 -25 -6 0 -4 -4 4 -10 9 -6 17 -5 22
3 5 8 8 6 8 -5 0 -10 4 -18 10 -18 5 0 7 7 4 15 -4 8 -1 15 5 15 18 0 12 29
-9 40 -17 9 -20 7 -26 -15z m36 -5 c0 -5 -4 -10 -10 -10 -5 0 -10 5 -10 10 0
6 5 10 10 10 6 0 10 -4 10 -10z"/>
<path d="M856 1691 c-4 -5 -1 -11 4 -13 6 -2 12 -13 12 -25 2 -16 6 -19 22
-13 11 4 22 13 25 21 3 12 2 12 -12 1 -13 -11 -17 -10 -26 6 -6 11 -7 22 -4
26 3 3 1 6 -5 6 -6 0 -13 -4 -16 -9z"/>
<path d="M798 1665 c-8 -9 4 -65 14 -65 6 0 7 11 4 26 -6 24 -6 25 9 10 21
-21 42 -21 25 0 -16 18 -46 35 -52 29z"/>
<path d="M1484 1645 c-9 -23 3 -45 24 -45 29 0 48 26 32 45 -7 8 -21 15 -32
15 -10 0 -21 -7 -24 -15z m46 -15 c0 -21 -24 -28 -35 -10 -8 14 3 30 21 30 8
0 14 -9 14 -20z"/>
<path d="M735 1627 c-27 -20 -15 -52 19 -52 17 0 31 6 34 15 5 13 3 13 -11 1
-18 -14 -47 -9 -47 9 0 6 10 14 22 19 12 4 17 11 11 14 -5 4 -18 1 -28 -6z"/>
<path d="M1572 1591 c-9 -27 -8 -29 14 -27 13 0 26 7 29 15 8 20 -4 28 -15 11
-5 -8 -12 -11 -16 -7 -4 3 -1 13 6 22 7 9 8 15 2 15 -5 0 -15 -13 -20 -29z"/>
<path d="M660 1565 c-10 -12 -10 -18 0 -30 20 -25 55 -15 55 15 0 30 -35 40
-55 15z m45 -15 c0 -8 -8 -16 -17 -18 -13 -2 -18 3 -18 18 0 15 5 20 18 18 9
-2 17 -10 17 -18z"/>
<path d="M1622 1564 c-7 -8 -17 -12 -23 -9 -5 4 -9 -1 -9 -10 0 -15 3 -14 30
2 17 9 30 21 30 25 0 12 -14 9 -28 -8z"/>
<path d="M1666 1525 c-3 -8 -13 -15 -21 -15 -9 0 -13 -5 -9 -11 4 -8 9 -8 17
0 18 18 25 13 19 -16 l-5 -26 26 19 c15 10 27 22 27 27 0 12 -12 8 -26 -10
-12 -16 -13 -14 -8 15 7 33 -9 46 -20 17z"/>
<path d="M607 1513 c-4 -4 3 -17 15 -30 16 -17 24 -20 35 -12 7 6 13 19 13 27
0 13 -2 13 -13 -3 -13 -17 -14 -17 -29 3 -8 12 -18 19 -21 15z"/>
<path d="M499 927 c-2 -27 -1 -51 4 -54 16 -9 18 4 9 53 l-9 49 -4 -48z"/>
<path d="M867 994 c-11 -12 -8 -152 4 -159 16 -11 17 -5 20 80 2 72 -6 97 -24
79z"/>
<path d="M960 961 c0 -30 4 -41 16 -41 11 0 14 9 12 37 -4 52 -28 56 -28 4z"/>
<path d="M1059 927 c-2 -27 -1 -51 3 -53 11 -7 14 9 8 56 l-6 45 -5 -48z"/>
<path d="M1370 859 c0 -38 24 -35 28 4 2 19 -1 27 -12 27 -11 0 -16 -10 -16
-31z"/>
<path d="M1460 960 c0 -29 4 -40 15 -40 11 0 15 11 15 40 0 29 -4 40 -15 40
-11 0 -15 -11 -15 -40z"/>
<path d="M1110 561 c0 -34 20 -75 46 -97 25 -20 25 -23 13 -63 l-13 -43 -17
23 c-9 13 -16 28 -15 33 2 6 1 8 -1 3 -3 -4 -18 2 -34 14 -16 11 -37 19 -48
17 -17 -3 -17 -5 5 -40 20 -32 30 -38 59 -38 36 0 38 -2 48 -70 3 -18 5 -15 6
11 1 23 9 43 25 58 22 21 28 22 60 11 26 -8 45 -8 76 0 45 12 44 22 -2 46 -39
20 -73 12 -117 -29 -25 -24 -32 -27 -26 -12 26 63 12 142 -30 177 -26 23 -35
22 -35 -1z"/>
</g>
</svg>
